<svg width="18" height="20" viewBox="0 0 18 20" fill="none" xmlns="http://www.w3.org/2000/svg">
<path fill-rule="evenodd" clip-rule="evenodd" d="M8.97307 0.100098L16.8471 0.190125C17.1891 0.190125 17.4641 0.470129 17.4641 0.820129V12.6001C17.4641 14.2801 16.5431 15.8201 15.0621 16.6101L9.08305 19.8201C8.89505 19.9201 8.66706 19.9202 8.48106 19.8102L2.81906 16.6201C1.39006 15.8201 0.508057 14.3001 0.508057 12.6601V0.820129C0.508057 0.470129 0.784068 0.190125 1.12607 0.190125L8.97307 0.100098ZM8.96706 1.3501L1.75806 1.43011V12.6601C1.75806 13.8501 2.39906 14.9502 3.43306 15.5302L8.79506 18.5602L14.4731 15.5101C15.5471 14.9301 16.2151 13.8201 16.2151 12.6001V1.43011L8.96706 1.3501Z" fill="#606580"/>
</svg>
