<svg width="13" height="18" viewBox="0 0 13 18"xmlns="http://www.w3.org/2000/svg">
<path fill-rule="evenodd" clip-rule="evenodd" d="M9.58887 1.40985V7.37988C9.58887 7.81988 9.91485 8.13989 10.3499 8.13989C10.7839 8.13989 11.1099 7.81988 11.1099 7.37988V1.40985C11.2189 0.969851 10.8929 0.649902 10.4579 0.649902C10.0239 0.649902 9.58887 0.969851 9.58887 1.40985Z"/>
<path fill-rule="evenodd" clip-rule="evenodd" d="M2.96106 7.37988V1.40985C2.96106 0.969851 2.52604 0.649902 2.09204 0.649902C1.65704 0.649902 1.33105 0.969851 1.33105 1.40985V7.37988C1.33105 7.81988 1.65704 8.13989 2.09204 8.13989C2.52604 8.13989 2.96106 7.81988 2.96106 7.37988Z"/>
<path fill-rule="evenodd" clip-rule="evenodd" d="M6.76395 17.4901L12.306 11.9501C12.631 11.6201 12.631 11.1801 12.306 10.9701C11.98 10.6401 11.545 10.6401 11.328 10.9701L7.09 15.2001V3.36011C7.09 2.93011 6.76396 2.6001 6.32896 2.6001C5.78596 2.6001 5.46 2.93011 5.46 3.36011V15.1001L1.22196 10.9701C0.89596 10.6401 0.461994 10.6401 0.243994 10.9701C-0.0810059 11.2901 -0.0810059 11.7301 0.243994 11.9501L5.78599 17.4901C6.00299 17.7001 6.43795 17.7001 6.76395 17.4901Z"/>
</svg>
