<svg width="3" height="14" viewBox="0 0 3 14" fill="none" xmlns="http://www.w3.org/2000/svg">
<path fill-rule="evenodd" clip-rule="evenodd" d="M1.30005 2.80019C2.00005 2.80019 2.6001 2.20019 2.6001 1.50019C2.6001 0.800191 2.00005 0.200195 1.30005 0.200195C0.600049 0.200195 0 0.800191 0 1.50019C0 2.20019 0.600049 2.80019 1.30005 2.80019Z" fill="#616580"/>
<path fill-rule="evenodd" clip-rule="evenodd" d="M1.30005 8.3C2.00005 8.3 2.6001 7.69999 2.6001 6.99999C2.6001 6.30019 2.00005 5.7002 1.30005 5.7002C0.600049 5.7002 0 6.30019 0 6.99999C0 7.69999 0.600049 8.3 1.30005 8.3Z" fill="#616580"/>
<path fill-rule="evenodd" clip-rule="evenodd" d="M1.30005 13.8C2.00005 13.8 2.6001 13.2 2.6001 12.5C2.6001 11.8 2.00005 11.2 1.30005 11.2C0.600049 11.2 0 11.8 0 12.5C0 13.2 0.600049 13.8 1.30005 13.8Z" fill="#616580"/>
</svg>
