<svg width="126" height="60" viewBox="0 0 126 60" fill="none" xmlns="http://www.w3.org/2000/svg">
<path fill-rule="evenodd" clip-rule="evenodd" d="M102.935 36.4833C102.442 36.4833 102.04 36.1126 102.04 35.6523L102.045 35.6195V21.5889V21.5268L102.049 21.4682C102.095 21.0544 102.471 20.7286 102.93 20.7286C103.39 20.7286 103.771 21.0544 103.816 21.4682L103.821 21.5268V21.5889V35.6195L103.824 35.6523C103.824 36.1126 103.424 36.4833 102.935 36.4833ZM104.599 18.1375H101.268C98.4505 18.1375 98.2815 20.4115 98.2815 21.877V35.33C98.2815 36.7972 98.4505 39.0713 101.268 39.0713H104.599C107.416 39.0713 107.588 36.7972 107.588 35.33V21.877C107.588 20.4115 107.416 18.1375 104.599 18.1375Z" fill="white"/>
<path d="M41.8867 18.1375H49.5624V20.7372H45.909V39.072H41.8867V18.1375Z" fill="white"/>
<path fill-rule="evenodd" clip-rule="evenodd" d="M50.1571 39.0713H54.0897L54.4673 33.5059H56.3655L56.7379 39.0713H60.6775L58.5758 18.1375H52.257L50.1571 39.0713ZM54.6105 31.2058L55.3036 20.732H55.5277L56.219 31.2058H54.6105Z" fill="white"/>
<path d="M66.4377 31.7422V35.6817C66.4377 36.2196 66.8342 36.3714 67.067 36.3714C67.4394 36.3714 67.698 36.0421 67.698 35.6817V30.8129C67.698 30.1595 67.5859 29.4423 66.0842 29.4423H64.455V27.1389H66.1428C67.2928 27.1389 67.698 26.8648 67.698 25.5855V21.4218C67.698 21.0632 67.4394 20.7374 67.067 20.7374C66.8342 20.7374 66.4377 20.8839 66.4377 21.4218V24.8355H62.4119V21.8787C62.4119 20.4115 62.5861 18.1392 65.3998 18.1392H68.7341C71.5513 18.1392 71.722 20.4115 71.722 21.8787V25.2286C71.722 27.4975 70.1979 28.1216 68.991 28.063V28.2751C71.6892 28.2113 71.722 30.3681 71.722 31.1181V35.33C71.722 36.7972 71.5513 39.0713 68.7341 39.0713H65.3998C62.5861 39.0713 62.4119 36.7972 62.4119 35.33V31.7422H66.4377Z" fill="white"/>
<path d="M74.3701 18.1375H83.6809V39.072H79.9263V20.7372H78.1202V39.072H74.3701V18.1375Z" fill="white"/>
<path fill-rule="evenodd" clip-rule="evenodd" d="M86.5939 39.0713H90.6162V31.9543H92.9144C95.7299 31.9543 96.1816 29.6836 96.1816 28.213V21.8787C96.1816 20.4115 95.7299 18.1392 92.9144 18.1392H86.5939V39.0713ZM90.6162 29.6475V20.7374H91.6714C92.1075 20.7374 92.4248 21.1271 92.4248 21.7788V28.6027C92.4248 29.2613 92.1075 29.6475 91.6714 29.6475H90.6162Z" fill="white"/>
<path d="M120.426 18.1375H125.66V39.072H121.635V25.9433H121.491L119.417 39.072H116.204L114.134 25.9433H113.993V39.072H109.967V18.1375H115.192L117.804 32.8489L120.426 18.1375Z" fill="white"/>
<path fill-rule="evenodd" clip-rule="evenodd" d="M33.3074 20.265C33.2608 22.3874 33.0056 24.627 32.6832 25.9631C32.7987 23.6615 32.5194 20.4047 31.9884 17.8634C31.4591 15.3221 29.9523 11.0843 28.754 9.11708C27.6506 10.9843 26.2817 14.6531 25.5662 17.8444C24.849 21.0288 24.8283 24.8856 24.8283 26.0424C24.6352 25.058 24.1594 21.5891 24.2956 18.0978C24.4093 15.2134 25.0817 12.2566 25.4507 10.8912C26.8593 6.34648 28.4575 3.43967 28.754 2.97589C29.054 3.43967 31.0643 7.01887 32.1057 10.7774C33.1436 14.5411 33.3487 18.1427 33.3074 20.265ZM28.7799 36.5092C28.1558 35.3351 27.1817 33.0973 27.0903 29.6388C27.0644 26.2923 28.4075 23.4252 28.7989 22.8252C29.1506 23.4252 30.3005 25.9216 30.4367 29.337C30.535 32.6783 29.4264 35.3093 28.7799 36.5092ZM33.6746 10.8255C32.4039 5.26363 29.2144 0.737909 28.7799 0C28.0834 1.03962 25.5421 5.03088 24.2524 9.46178C22.8404 14.403 22.6335 18.7856 23.118 23.1062C23.6042 27.4199 25.43 31.8525 25.43 31.8525C26.4006 34.1783 27.854 36.6696 28.7988 37.8937C30.1833 36.092 33.3763 30.7232 34.3659 23.7062C34.9194 19.8028 34.94 16.3874 33.6746 10.8255Z" fill="white"/>
<path d="M20.9769 39.0676V45.6484C20.9856 45.6381 20.9959 45.6312 21.008 45.6208C23.3062 43.3313 27.0406 43.3313 29.3422 45.6208C31.6456 47.9087 31.6456 51.6327 29.3422 53.9223L29.3146 53.9499V53.9516C29.2991 53.962 29.2905 53.9723 29.2819 53.9827C26.9802 56.2498 23.9786 57.3895 20.9769 57.3895C17.9701 57.3895 14.9495 56.2395 12.6513 53.9568C8.60146 49.919 8.11699 43.6778 11.2083 39.1176C11.6238 38.5038 12.1031 37.9194 12.6513 37.3763C14.9495 35.085 17.9701 33.9453 20.9769 33.9453V18.2493C9.39971 18.2493 0 27.5955 0 39.1176C0 50.6535 9.39971 59.9997 20.9769 59.9997C27.0233 59.9997 32.4611 57.4515 36.2868 53.3896V39.0676H20.9769Z" fill="white"/>
<path fill-rule="evenodd" clip-rule="evenodd" d="M121.9 55.0553C121.9 57.0432 120.995 57.3983 118.686 57.3983H116.564V48.3072H118.686V51.8158H119.043C121.129 51.8158 121.9 52.3037 121.9 54.1209V55.0553ZM104.181 50.0263H102.573V57.4053H100.552V50.0263H98.828V48.3022H104.181V50.0263ZM87.8421 54.1571C87.8421 56.0001 86.9025 56.4984 84.8129 56.4984V57.3983H82.7475V56.4984C80.651 56.4984 79.701 56.0001 79.701 54.1571V51.3175C79.701 49.4624 80.613 48.99 82.7475 48.99V48.3072H84.8129V48.99C86.9353 48.99 87.8421 49.4624 87.8421 51.3175V54.1571ZM68.5927 50.0263H65.6876V51.8159H68.2875V53.5382H65.6876V55.6795H68.5927V57.4053H63.498V48.3022H68.5927V50.0263ZM50.9829 57.3983H48.8571V53.4209H47.7675V57.3983H45.6417V48.3072H47.7675V51.8158H48.8571V48.3072H50.9829V57.3983ZM125.66 46.0435H41.8867V59.9999H125.66V46.0435ZM81.7648 51.2605V54.1708C81.7648 54.7035 81.9354 54.8242 82.4044 54.8242H82.7475V50.5899H82.4044C81.9354 50.5899 81.7648 50.7261 81.7648 51.2605ZM119.158 53.421H118.686V55.7933H119.158C119.636 55.7933 119.777 55.6692 119.777 55.1537V54.0589C119.777 53.5382 119.636 53.421 119.158 53.421ZM85.1388 50.5899H84.8129V54.8242H85.1388C85.6129 54.8242 85.7836 54.6915 85.7836 54.157V51.233C85.7836 50.6985 85.6129 50.5899 85.1388 50.5899Z" fill="white"/>
</svg>
