<svg width="25" height="26" viewBox="0 0 25 26" fill="none" xmlns="http://www.w3.org/2000/svg">
<path fill-rule="evenodd" clip-rule="evenodd" d="M12.1393 0.533447H18.4483C21.6144 0.533447 24.1916 3.01132 24.1916 6.05823V15.5389C24.1916 16.0681 23.7438 16.4964 23.1949 16.4964C22.6435 16.4964 22.1969 16.0681 22.1969 15.5389V6.05823C22.1969 4.06971 20.5155 2.451 18.4483 2.451H12.1393C10.0644 2.451 8.37644 4.07469 8.37644 6.07068V7.22993C8.37644 7.75912 7.93117 8.18746 7.37974 8.18746C6.82962 8.18746 6.38304 7.75912 6.38304 7.22993V6.07068C6.38304 3.01755 8.9654 0.533447 12.1393 0.533447ZM14.3437 10.9429C14.1578 11.1334 13.9125 11.228 13.6659 11.228C13.4243 11.228 13.1814 11.1359 12.9943 10.9504L12.0824 10.0451C11.7082 9.67283 11.7045 9.06643 12.0749 8.68915C12.4442 8.31186 13.0476 8.30937 13.4243 8.68168L14.3375 9.58815C14.7117 9.95921 14.7154 10.5669 14.3437 10.9429ZM12.0775 17.2839C11.7058 16.9078 11.7071 16.3014 12.08 15.9279L14.0625 13.9443H1.48728C0.960679 13.9443 0.533203 13.5148 0.533203 12.9856C0.533203 12.4564 0.960679 12.0255 1.48728 12.0255H16.3734C16.76 12.0255 17.1081 12.2596 17.2556 12.6195C17.403 12.9781 17.32 13.3915 17.0474 13.6654L13.4269 17.2863C13.241 17.4719 12.9969 17.5653 12.7528 17.5653C12.5087 17.5653 12.2634 17.4719 12.0775 17.2839ZM23.1942 18.941C22.644 18.941 22.1975 19.3706 22.1975 19.8998C22.1975 21.8958 20.5095 23.5195 18.4346 23.5195H12.1256C10.0597 23.5195 8.37698 21.9008 8.37698 19.9123V18.7406C8.37698 18.2114 7.93041 17.7818 7.38028 17.7818C6.83015 17.7818 6.38358 18.2114 6.38358 18.7406V19.9123C6.38358 22.9592 8.95947 25.4371 12.1256 25.4371H18.4346C21.6085 25.4371 24.1909 22.953 24.1909 19.8998C24.1909 19.3706 23.7443 18.941 23.1942 18.941Z" fill="#0089FF"/>
</svg>
