<svg width="19" height="14" viewBox="0 0 19 14" fill="none" xmlns="http://www.w3.org/2000/svg">
<path fill-rule="evenodd" clip-rule="evenodd" d="M1.7741 1.7189C2.0688 1.438 2.4691 1.2667 2.9133 1.2667H16.0867C16.5309 1.2667 16.9312 1.438 17.2258 1.7188L9.4999 8.529L1.7741 1.7189ZM1.2667 2.9601V10.45C1.2667 10.462 1.2668 10.474 1.267 10.486L3.5415 8.744C3.8192 8.531 4.2167 8.584 4.4294 8.861C4.6421 9.139 4.5894 9.537 4.3117 9.749L1.8028 11.671C2.0945 11.936 2.4833 12.097 2.9133 12.097H16.0867C16.5144 12.097 16.9014 11.938 17.1926 11.675L14.63 9.753C14.3501 9.543 14.2934 9.146 14.5033 8.867C14.7132 8.587 15.1101 8.53 15.39 8.74L17.7327 10.497C17.7331 10.481 17.7333 10.466 17.7333 10.45V2.96L9.9187 9.848C9.6794 10.059 9.3205 10.059 9.0811 9.848L1.2667 2.9601ZM2.9133 0C1.2969 0 0 1.2969 0 2.9133V10.45C0 12.066 1.2969 13.363 2.9133 13.363H16.0867C17.7031 13.363 19 12.066 19 10.45V2.9133C19 1.2969 17.7031 0 16.0867 0H2.9133Z" fill="#606580"/>
</svg>
