<svg width="18" height="18" viewBox="0 0 18 18" fill="none" xmlns="http://www.w3.org/2000/svg">
<path fill-rule="evenodd" clip-rule="evenodd" d="M3.37097 0.590027C3.37097 0.260027 3.63601 0 3.96301 0C4.96901 0 5.87397 0.429976 6.60797 1.09998C6.61497 1.10998 6.62199 1.11 6.62799 1.12C8.16099 2.65 8.16099 5.10001 6.62799 6.63C5.09599 8.16 2.652 8.16 1.12 6.63C1.113 6.62 1.10598 6.60999 1.09998 6.60999C0.423976 5.85999 0 4.90002 0 3.90002C0 3.58002 0.265003 3.31 0.591003 3.31C0.918003 3.31 1.18298 3.58002 1.18298 3.90002C1.18298 4.56002 1.465 5.24999 1.966 5.79999C3.037 6.85999 4.72499 6.85998 5.79199 5.78998C6.85899 4.72998 6.862 3.03997 5.802 1.96997C5.238 1.45997 4.60901 1.17999 3.96301 1.17999C3.63601 1.17999 3.37097 0.920027 3.37097 0.590027Z"/>
<path fill-rule="evenodd" clip-rule="evenodd" d="M11.65 10.0499C11.882 9.81994 12.256 9.81994 12.486 10.0499L17.513 15.14C17.742 15.37 17.741 15.7399 17.511 15.9699L15.973 17.51C15.742 17.74 15.368 17.74 15.137 17.51L10.997 13.3699C10.766 13.1399 10.766 12.77 10.997 12.53C11.228 12.3 11.602 12.3 11.833 12.53L15.555 16.26L16.2589 15.5499L11.645 10.88C11.415 10.65 11.417 10.2799 11.65 10.0499Z"/>
<path fill-rule="evenodd" clip-rule="evenodd" d="M6.85684 5.31996C7.08784 5.08996 7.46184 5.08996 7.69284 5.31996L8.57987 6.20998C8.81087 6.43998 8.81087 6.80993 8.57987 7.03993C8.34887 7.26993 7.97487 7.26993 7.74387 7.03993L6.85684 6.15993C6.62584 5.91993 6.62584 5.54996 6.85684 5.31996Z"/>
<path fill-rule="evenodd" clip-rule="evenodd" d="M7.24796 8.7599C7.47896 8.5299 7.85296 8.5299 8.08396 8.7599L10.008 10.6799C10.239 10.9099 10.239 11.2899 10.008 11.5199L3.94394 17.5798C3.71294 17.8098 3.33794 17.8098 3.10794 17.5798L1.18399 15.6599C0.952992 15.4299 0.952992 15.0499 1.18399 14.8199L7.24796 8.7599ZM7.66599 10.0099L2.43796 15.2399L3.52597 16.3298L8.75296 11.0999L7.66599 10.0099Z"/>
<path fill-rule="evenodd" clip-rule="evenodd" d="M16.2719 1.05009C16.4839 0.960088 16.729 1.00007 16.899 1.16007L17.55 1.7501C17.737 1.9201 17.7949 2.19008 17.6939 2.42008L16.689 4.73008C16.628 4.87008 16.5159 4.98008 16.3759 5.04008L14.235 5.9401L9.34897 10.8301C9.11797 11.0601 8.74297 11.0601 8.51297 10.8301C8.39597 10.7101 8.33896 10.5601 8.33896 10.4101C8.16896 10.4201 7.99197 10.3701 7.86197 10.2401C7.63097 10.0101 7.63097 9.63012 7.86197 9.40012L12.7509 4.51011L13.7119 2.3101C13.7719 2.1701 13.884 2.0601 14.024 2.0001L16.2719 1.05009ZM13.919 4.79008L15.6989 4.04008L16.44 2.34013L16.383 2.29008L14.701 3.0001L13.919 4.79008Z"/>
</svg>
